<svg baseProfile="tiny" xmlns="http://www.w3.org/2000/svg" viewBox="0 0 112 36"><g fill="#FFF"><path d="M34.811 36h6.024a.988.988 0 0 0 .988-.988V11.948c0-.907-1.119-1.335-1.724-.659l-6.024 6.721a.99.99 0 0 0-.252.659v16.342c0 .547.443.989.988.989zM4.232 4.439c-5.642 6.111-5.642 21.019 0 27.13C7.004 34.563 11.28 36 17.054 36h11.781a.988.988 0 0 0 .988-.988v-4.024a.988.988 0 0 0-.988-.988H17.156c-3.124 0-5.381-.963-6.771-2.944-2.799-3.97-2.799-14.074 0-18.043C11.775 7.032 14.032 6 17.156 6h11.679a.988.988 0 0 0 .988-.988V.988A.988.988 0 0 0 28.835 0H16.974C11.2 0 7.004 1.444 4.232 4.439zM33.823.386l6.274 7.042c.604.678 1.726.251 1.726-.657V.988A.988.988 0 0 0 40.835 0h-7.012v.386zM109.581 18.014a6.187 6.187 0 0 0-.494-.504c-1.737-1.571-4.672-2.377-8.804-2.409l-9.988-.077c-1.574-.012-2.763-.346-3.55-1.002-.794-.656-1.186-1.634-1.176-2.941.013-1.624.488-2.927 1.436-3.67C87.942 6.669 89.412 6 91.419 6h17.416a.988.988 0 0 0 .988-.988V.988a.988.988 0 0 0-.988-.988H90.37c-4.383 0-7.58.842-9.601 2.584-2.021 1.742-3.05 4.523-3.08 8.339-.024 3.059.667 5.424 2.065 7.089.156.178.32.348.494.506 1.737 1.571 4.672 2.378 8.804 2.41l9.988.078c1.574.012 2.763.346 3.55 1.002.794.656 1.187 1.634 1.176 2.942-.013 1.625-.488 2.913-1.435 3.656-.939.739-2.409 1.394-4.416 1.394H79.811a.988.988 0 0 0-.988.988v4.024c0 .546.442.988.988.988h19.153c4.383 0 7.58-.828 9.601-2.57 2.022-1.742 3.051-4.516 3.08-8.331.025-3.059-.666-5.42-2.064-7.085zM74.078 17.51c-1.737-1.571-4.672-2.377-8.804-2.409l-9.988-.077c-1.574-.012-2.763-.346-3.55-1.002-.794-.656-1.187-1.634-1.177-2.941.013-1.624.488-2.927 1.436-3.67C52.933 6.669 54.403 6 56.411 6h18.424a.988.988 0 0 0 .988-.988V.988A.988.988 0 0 0 74.835 0H55.361c-4.383 0-7.58.842-9.601 2.584-2.021 1.742-3.05 4.523-3.08 8.339-.024 3.059.667 5.424 2.065 7.089.156.178.32.348.494.506 1.737 1.571 4.672 2.378 8.804 2.41l9.988.078c1.574.012 2.763.346 3.55 1.002.794.656 1.186 1.634 1.176 2.942-.013 1.625-.488 2.913-1.436 3.656-.937.739-2.407 1.394-4.415 1.394H44.811a.988.988 0 0 0-.988.988v4.024c0 .546.442.988.988.988h19.145c4.383 0 7.58-.828 9.601-2.57 2.021-1.742 3.05-4.516 3.08-8.331.024-3.059-.667-5.42-2.065-7.086a6.34 6.34 0 0 0-.494-.503z"/></g></svg>